<?xml version="1.0" encoding="UTF-8" standalone="no"?>
<svg
   xmlns:dc="http://purl.org/dc/elements/1.1/"
   xmlns:cc="http://creativecommons.org/ns#"
   xmlns:rdf="http://www.w3.org/1999/02/22-rdf-syntax-ns#"
   xmlns:svg="http://www.w3.org/2000/svg"
   xmlns="http://www.w3.org/2000/svg"
   xmlns:sodipodi="http://sodipodi.sourceforge.net/DTD/sodipodi-0.dtd"
   xmlns:inkscape="http://www.inkscape.org/namespaces/inkscape"
   width="1024"
   height="1024"
   viewBox="0 0 270.93333 270.93334"
   version="1.1"
   id="svg8"
   inkscape:version="1.0 (4035a4fb49, 2020-05-01)"
   sodipodi:docname="faces.svg"
   inkscape:export-filename="D:\Blokky's Escape\models\texture\blokky-oh.png"
   inkscape:export-xdpi="96"
   inkscape:export-ydpi="96">
  <defs
     id="defs2" />
  <sodipodi:namedview
     id="base"
     pagecolor="#ffffff"
     bordercolor="#666666"
     borderopacity="1.0"
     inkscape:pageopacity="0.0"
     inkscape:pageshadow="2"
     inkscape:zoom="0.29756007"
     inkscape:cx="-250.16"
     inkscape:cy="1086.3096"
     inkscape:document-units="px"
     inkscape:current-layer="layer1"
     inkscape:document-rotation="0"
     showgrid="false"
     inkscape:window-width="1920"
     inkscape:window-height="1017"
     inkscape:window-x="-8"
     inkscape:window-y="-8"
     inkscape:window-maximized="1"
     units="px" />
  <metadata
     id="metadata5">
    <rdf:RDF>
      <cc:Work
         rdf:about="">
        <dc:format>image/svg+xml</dc:format>
        <dc:type
           rdf:resource="http://purl.org/dc/dcmitype/StillImage" />
        <dc:title />
      </cc:Work>
    </rdf:RDF>
  </metadata>
  <g
     inkscape:label="Layer 1"
     inkscape:groupmode="layer"
     id="layer1">
    <g
       transform="translate(137.68066)"
       id="g3174">
      <ellipse
         ry="22.151169"
         rx="14.479302"
         cy="64.663292"
         cx="28.864088"
         id="ellipse3134"
         style="fill:#f4eed7;fill-opacity:1;stroke:#000000;stroke-width:1.61716;stroke-linecap:round;stroke-linejoin:round;stroke-opacity:0" />
      <path
         style="fill:#24221c;stroke:#24221c;stroke-width:1.53966;stroke-linecap:round;stroke-linejoin:round;stroke-opacity:1"
         id="path3138"
         sodipodi:type="arc"
         sodipodi:cx="28.850763"
         sodipodi:cy="64.663292"
         sodipodi:rx="13.785411"
         sodipodi:ry="21.089619"
         sodipodi:start="4.1887902"
         sodipodi:end="3.6651914"
         sodipodi:arc-type="slice"
         d="m 21.958058,46.399146 a 13.785411,21.089619 0 0 1 17.829407,5.425599 13.785411,21.089619 0 0 1 -1.188944,27.751159 13.785411,21.089619 0 0 1 -18.139784,1.818908 13.785411,21.089619 0 0 1 -3.54649,-27.276329 l 11.938516,10.544809 z" />
      <ellipse
         style="fill:#f4eed7;fill-opacity:1;stroke:#000000;stroke-width:1.61716;stroke-linecap:round;stroke-linejoin:round;stroke-opacity:0"
         id="ellipse3140"
         cx="90.776581"
         cy="64.663292"
         rx="14.479302"
         ry="22.151169" />
      <path
         id="path3142"
         style="fill:#24221c;stroke:#24221c;stroke-width:1.53966;stroke-linecap:round;stroke-linejoin:round;stroke-opacity:1"
         sodipodi:type="arc"
         sodipodi:cx="90.776581"
         sodipodi:cy="64.663292"
         sodipodi:rx="13.785411"
         sodipodi:ry="21.089619"
         sodipodi:start="4.1887902"
         sodipodi:end="3.6651914"
         sodipodi:arc-type="slice"
         d="m 83.883875,46.399146 a 13.785411,21.089619 0 0 1 17.829405,5.425599 13.785411,21.089619 0 0 1 -1.18894,27.751159 13.785411,21.089619 0 0 1 -18.139785,1.818908 13.785411,21.089619 0 0 1 -3.54649,-27.276329 l 11.938516,10.544809 z" />
      <path
         d="M 74.454229,30.693173 A 16.898142,25.851635 0 0 1 90.776581,11.532433 16.898142,25.851635 0 0 1 107.09893,30.693172"
         sodipodi:arc-type="arc"
         sodipodi:end="6.0213859"
         sodipodi:start="3.403392"
         sodipodi:ry="25.851635"
         sodipodi:rx="16.898142"
         sodipodi:cy="37.384068"
         sodipodi:cx="90.776581"
         sodipodi:type="arc"
         style="fill:none;stroke:#24221c;stroke-width:4.99352;stroke-linecap:round;stroke-miterlimit:4;stroke-dasharray:none;stroke-opacity:1"
         id="path3152"
         sodipodi:open="true" />
      <path
         sodipodi:open="true"
         id="path3154"
         style="fill:none;stroke:#24221c;stroke-width:4.99352;stroke-linecap:round;stroke-miterlimit:4;stroke-dasharray:none;stroke-opacity:1"
         sodipodi:type="arc"
         sodipodi:cx="29.671263"
         sodipodi:cy="37.384068"
         sodipodi:rx="16.898142"
         sodipodi:ry="25.851635"
         sodipodi:start="3.403392"
         sodipodi:end="6.0213859"
         sodipodi:arc-type="arc"
         d="M 13.348911,30.693173 A 16.898142,25.851635 0 0 1 29.671263,11.532433 16.898142,25.851635 0 0 1 45.993614,30.693172" />
      <ellipse
         style="fill:#24221c;fill-opacity:1;stroke:#000000;stroke-width:0.51094;stroke-linecap:round;stroke-linejoin:round;stroke-opacity:0"
         id="path3176"
         cx="59.404179"
         cy="117.15054"
         rx="10.676627"
         ry="13.722399" />
    </g>
    <g
       id="g1089">
      <ellipse
         style="fill:#f4eed7;fill-opacity:1;stroke:#000000;stroke-width:1.61716;stroke-linecap:round;stroke-linejoin:round;stroke-opacity:0"
         id="ellipse907"
         cx="28.864088"
         cy="64.663292"
         rx="14.479302"
         ry="22.151169" />
      <path
         id="path867"
         d="m 23.397129,105.03542 v 7.35854 l 12.221069,8.69417 12.22107,8.21418 h 12.221069 l 12.221069,-1.57308 12.221081,-7.13729 12.48295,-8.19798 v -7.35854 l -12.48295,4.07369 H 72.281406 60.060337 47.839268 35.618198 Z"
         style="fill:#f4eed7;stroke:none;stroke-width:0.203684px;stroke-linecap:butt;stroke-linejoin:miter;stroke-opacity:1" />
      <path
         d="m 21.958058,46.399146 a 13.785411,21.089619 0 0 1 17.829407,5.425599 13.785411,21.089619 0 0 1 -1.188944,27.751159 13.785411,21.089619 0 0 1 -18.139784,1.818908 13.785411,21.089619 0 0 1 -3.54649,-27.276329 l 11.938516,10.544809 z"
         sodipodi:arc-type="slice"
         sodipodi:end="3.6651914"
         sodipodi:start="4.1887902"
         sodipodi:ry="21.089619"
         sodipodi:rx="13.785411"
         sodipodi:cy="64.663292"
         sodipodi:cx="28.850763"
         sodipodi:type="arc"
         id="path833"
         style="fill:#24221c;stroke:#24221c;stroke-width:1.53966;stroke-linecap:round;stroke-linejoin:round;stroke-opacity:1" />
      <ellipse
         ry="22.151169"
         rx="14.479302"
         cy="64.663292"
         cx="90.776581"
         id="path905"
         style="fill:#f4eed7;fill-opacity:1;stroke:#000000;stroke-width:1.61716;stroke-linecap:round;stroke-linejoin:round;stroke-opacity:0" />
      <path
         d="m 83.883875,46.399146 a 13.785411,21.089619 0 0 1 17.829405,5.425599 13.785411,21.089619 0 0 1 -1.18894,27.751159 13.785411,21.089619 0 0 1 -18.139785,1.818908 13.785411,21.089619 0 0 1 -3.54649,-27.276329 l 11.938516,10.544809 z"
         sodipodi:arc-type="slice"
         sodipodi:end="3.6651914"
         sodipodi:start="4.1887902"
         sodipodi:ry="21.089619"
         sodipodi:rx="13.785411"
         sodipodi:cy="64.663292"
         sodipodi:cx="90.776581"
         sodipodi:type="arc"
         style="fill:#24221c;stroke:#24221c;stroke-width:1.53966;stroke-linecap:round;stroke-linejoin:round;stroke-opacity:1"
         id="ellipse835" />
      <path
         d="m 7.1069269,106.38604 a 6.1725717,6.1725717 0 0 1 2e-7,-6.17257 6.1725717,6.1725717 0 0 1 5.3456039,-3.086283"
         sodipodi:arc-type="arc"
         sodipodi:open="true"
         sodipodi:end="4.712389"
         sodipodi:start="2.6179939"
         sodipodi:ry="6.1725717"
         sodipodi:rx="6.1725717"
         sodipodi:cy="103.29976"
         sodipodi:cx="12.452531"
         sodipodi:type="arc"
         id="path837"
         style="fill:none;stroke:#24221c;stroke-width:4.07369;stroke-linecap:round;stroke-miterlimit:4;stroke-dasharray:none;stroke-opacity:1" />
      <path
         transform="scale(-1,1)"
         style="fill:none;stroke:#24221c;stroke-width:4.07369;stroke-linecap:round;stroke-miterlimit:4;stroke-dasharray:none;stroke-opacity:1"
         id="path839"
         sodipodi:type="arc"
         sodipodi:cx="-108.12342"
         sodipodi:cy="103.29976"
         sodipodi:rx="6.1725717"
         sodipodi:ry="6.1725717"
         sodipodi:start="2.6179939"
         sodipodi:end="4.712389"
         sodipodi:open="true"
         sodipodi:arc-type="arc"
         d="m -113.46902,106.38604 a 6.1725717,6.1725717 0 0 1 0,-6.17257 6.1725717,6.1725717 0 0 1 5.3456,-3.086283" />
      <path
         sodipodi:nodetypes="czc"
         id="path841"
         d="m 7.705092,102.03101 c 0,0 27.331058,7.50239 52.516771,7.50239 25.185714,0 52.516777,-7.50239 52.516777,-7.50239"
         style="fill:none;stroke:#24221c;stroke-width:4.07369;stroke-linecap:butt;stroke-linejoin:miter;stroke-miterlimit:4;stroke-dasharray:none;stroke-opacity:1" />
      <path
         sodipodi:nodetypes="czzc"
         id="path843"
         d="m 7.705092,102.03101 c 0,0 18.092716,10.42846 27.72939,20.06514 9.636674,9.63667 37.072299,8.83455 48.001645,-0.51339 10.92934,-9.34793 29.302513,-19.55175 29.302513,-19.55175"
         style="fill:none;stroke:#24221c;stroke-width:4.07369;stroke-linecap:butt;stroke-linejoin:miter;stroke-miterlimit:4;stroke-dasharray:none;stroke-opacity:1" />
      <path
         sodipodi:open="true"
         id="path845"
         style="fill:none;stroke:#24221c;stroke-width:4.99352;stroke-linecap:round;stroke-miterlimit:4;stroke-dasharray:none;stroke-opacity:1"
         sodipodi:type="arc"
         sodipodi:cx="90.776581"
         sodipodi:cy="37.384068"
         sodipodi:rx="16.898142"
         sodipodi:ry="25.851635"
         sodipodi:start="3.403392"
         sodipodi:end="6.0213859"
         sodipodi:arc-type="arc"
         d="M 74.454229,30.693173 A 16.898142,25.851635 0 0 1 90.776581,11.532433 16.898142,25.851635 0 0 1 107.09893,30.693172" />
      <path
         d="M 13.348911,30.693173 A 16.898142,25.851635 0 0 1 29.671263,11.532433 16.898142,25.851635 0 0 1 45.993614,30.693172"
         sodipodi:arc-type="arc"
         sodipodi:end="6.0213859"
         sodipodi:start="3.403392"
         sodipodi:ry="25.851635"
         sodipodi:rx="16.898142"
         sodipodi:cy="37.384068"
         sodipodi:cx="29.671263"
         sodipodi:type="arc"
         style="fill:none;stroke:#24221c;stroke-width:4.99352;stroke-linecap:round;stroke-miterlimit:4;stroke-dasharray:none;stroke-opacity:1"
         id="path847"
         sodipodi:open="true" />
      <path
         id="path849"
         d="m 60.060338,109.10911 v 20.1932"
         style="fill:#164450;fill-opacity:1;stroke:#24221c;stroke-width:4.07369;stroke-linecap:butt;stroke-linejoin:miter;stroke-miterlimit:4;stroke-dasharray:none;stroke-opacity:1" />
      <path
         sodipodi:nodetypes="cc"
         style="fill:#164450;fill-opacity:1;stroke:#24221c;stroke-width:4.07369;stroke-linecap:butt;stroke-linejoin:miter;stroke-miterlimit:4;stroke-dasharray:none;stroke-opacity:1"
         d="m 72.281407,109.10911 v 18.62012"
         id="path851" />
      <path
         sodipodi:nodetypes="cc"
         id="path853"
         d="m 84.502487,109.10911 v 11.48283"
         style="fill:#164450;fill-opacity:1;stroke:#24221c;stroke-width:4.07369;stroke-linecap:butt;stroke-linejoin:miter;stroke-miterlimit:4;stroke-dasharray:none;stroke-opacity:1" />
      <path
         sodipodi:nodetypes="cc"
         style="fill:#164450;fill-opacity:1;stroke:#24221c;stroke-width:4.07369;stroke-linecap:butt;stroke-linejoin:miter;stroke-miterlimit:4;stroke-dasharray:none;stroke-opacity:1"
         d="m 96.723567,105.03542 v 8.04305"
         id="path855" />
      <path
         id="path857"
         d="m 47.839269,109.10911 v 20.1932"
         style="fill:#164450;fill-opacity:1;stroke:#24221c;stroke-width:4.07369;stroke-linecap:butt;stroke-linejoin:miter;stroke-miterlimit:4;stroke-dasharray:none;stroke-opacity:1" />
      <path
         sodipodi:nodetypes="cc"
         style="fill:#164450;fill-opacity:1;stroke:#24221c;stroke-width:4.07369;stroke-linecap:butt;stroke-linejoin:miter;stroke-miterlimit:4;stroke-dasharray:none;stroke-opacity:1"
         d="m 35.618199,109.10911 v 11.97902"
         id="path859" />
      <path
         sodipodi:nodetypes="cc"
         id="path861"
         d="m 23.397129,105.03542 v 7.35854"
         style="fill:#164450;fill-opacity:1;stroke:#24221c;stroke-width:4.07369;stroke-linecap:butt;stroke-linejoin:miter;stroke-miterlimit:4;stroke-dasharray:none;stroke-opacity:1" />
      <path
         id="path863"
         d="m 15.669097,104.5742 7.728032,0.46122 v 7.35854 z"
         style="fill:#24221c;fill-opacity:1;stroke:#000000;stroke-width:0.203684px;stroke-linecap:butt;stroke-linejoin:miter;stroke-opacity:0" />
      <path
         style="fill:#24221c;fill-opacity:1;stroke:#000000;stroke-width:0.203684px;stroke-linecap:butt;stroke-linejoin:miter;stroke-opacity:0"
         d="m 104.71348,104.5742 -7.728043,0.46122 v 7.35854 z"
         id="path865" />
    </g>
    <g
       transform="translate(158.75004)"
       id="g1123">
      <path
         sodipodi:nodetypes="czccczccc"
         id="path949"
         d="m 150.82651,64.542909 c 0,0 7.34525,1.5875 15.22715,1.5875 7.8819,0 15.22714,-1.5875 15.22714,-1.5875 l -1.77836,2.000644 1.66721,2.000647 c 0,0 -7.34554,1.5875 -15.39387,1.5875 -8.04833,0 -15.39386,-1.5875 -15.39386,-1.5875 l 3.00097,-2.111793 z"
         style="fill:#24221c;fill-opacity:1;stroke:#24221c;stroke-width:5.29167;stroke-linecap:butt;stroke-linejoin:round;stroke-miterlimit:4;stroke-dasharray:none;stroke-opacity:1" />
      <path
         style="fill:#24221c;fill-opacity:1;stroke:#24221c;stroke-width:5.29167;stroke-linecap:butt;stroke-linejoin:round;stroke-miterlimit:4;stroke-dasharray:none;stroke-opacity:1"
         d="m 213.26824,64.542909 c 0,0 7.34525,1.5875 15.22715,1.5875 7.8819,0 15.22714,-1.5875 15.22714,-1.5875 l -1.77836,2.000644 1.66721,2.000647 c 0,0 -7.34554,1.5875 -15.39387,1.5875 -8.04833,0 -15.39386,-1.5875 -15.39386,-1.5875 l 3.00097,-2.111793 z"
         id="path951"
         sodipodi:nodetypes="czccczccc" />
      <path
         sodipodi:nodetypes="cczc"
         id="path955"
         d="m 183.19972,109.10911 h 24.44215 c 0,0 -4.89073,8.62292 -12.28247,8.62292 -7.39175,0 -12.15968,-8.62292 -12.15968,-8.62292 z"
         style="fill:#24221c;fill-opacity:1;stroke:#24221c;stroke-width:5.29167;stroke-linecap:round;stroke-linejoin:round;stroke-miterlimit:4;stroke-dasharray:none;stroke-opacity:1" />
    </g>
    <g
       id="g1111">
      <ellipse
         ry="22.151169"
         rx="14.479302"
         cy="196.955"
         cx="28.864088"
         id="ellipse957"
         style="fill:#f4eed7;fill-opacity:1;stroke:#000000;stroke-width:1.61716;stroke-linecap:round;stroke-linejoin:round;stroke-opacity:0" />
      <path
         style="fill:#f4eed7;stroke:none;stroke-width:0.203684px;stroke-linecap:butt;stroke-linejoin:miter;stroke-opacity:1"
         d="m 23.397129,253.35141 v -7.35854 l 12.221069,-8.69417 12.22107,-8.21418 h 12.221069 l 12.221069,1.57308 12.221081,7.13729 12.48295,8.19798 v 7.35854 l -12.48295,-4.07369 H 72.281406 60.060337 47.839268 35.618198 Z"
         id="path959" />
      <path
         style="fill:#24221c;stroke:#24221c;stroke-width:1.53966;stroke-linecap:round;stroke-linejoin:round;stroke-opacity:1"
         id="path961"
         sodipodi:type="arc"
         sodipodi:cx="28.850763"
         sodipodi:cy="196.955"
         sodipodi:rx="13.785411"
         sodipodi:ry="21.089619"
         sodipodi:start="4.1887902"
         sodipodi:end="3.6651914"
         sodipodi:arc-type="slice"
         d="m 21.958058,178.69086 a 13.785411,21.089619 0 0 1 17.829407,5.4256 13.785411,21.089619 0 0 1 -1.188944,27.75115 13.785411,21.089619 0 0 1 -18.139784,1.81891 13.785411,21.089619 0 0 1 -3.54649,-27.27633 L 28.850763,196.955 Z" />
      <ellipse
         style="fill:#f4eed7;fill-opacity:1;stroke:#000000;stroke-width:1.61716;stroke-linecap:round;stroke-linejoin:round;stroke-opacity:0"
         id="ellipse963"
         cx="90.776581"
         cy="196.955"
         rx="14.479302"
         ry="22.151169" />
      <path
         id="path965"
         style="fill:#24221c;stroke:#24221c;stroke-width:1.53966;stroke-linecap:round;stroke-linejoin:round;stroke-opacity:1"
         sodipodi:type="arc"
         sodipodi:cx="90.776581"
         sodipodi:cy="196.955"
         sodipodi:rx="13.785411"
         sodipodi:ry="21.089619"
         sodipodi:start="4.1887902"
         sodipodi:end="3.6651914"
         sodipodi:arc-type="slice"
         d="m 83.883875,178.69086 a 13.785411,21.089619 0 0 1 17.829405,5.4256 13.785411,21.089619 0 0 1 -1.18894,27.75115 13.785411,21.089619 0 0 1 -18.139785,1.81891 13.785411,21.089619 0 0 1 -3.54649,-27.27633 L 90.776581,196.955 Z" />
      <path
         transform="scale(1,-1)"
         style="fill:none;stroke:#24221c;stroke-width:4.07369;stroke-linecap:round;stroke-miterlimit:4;stroke-dasharray:none;stroke-opacity:1"
         id="path967"
         sodipodi:type="arc"
         sodipodi:cx="12.452531"
         sodipodi:cy="-255.08705"
         sodipodi:rx="6.1725717"
         sodipodi:ry="6.1725717"
         sodipodi:start="2.6179939"
         sodipodi:end="4.712389"
         sodipodi:open="true"
         sodipodi:arc-type="arc"
         d="m 7.1069269,-252.00077 a 6.1725717,6.1725717 0 0 1 2e-7,-6.17257 6.1725717,6.1725717 0 0 1 5.3456039,-3.08628" />
      <path
         d="m -113.46902,-252.00077 a 6.1725717,6.1725717 0 0 1 0,-6.17257 6.1725717,6.1725717 0 0 1 5.3456,-3.08628"
         sodipodi:arc-type="arc"
         sodipodi:open="true"
         sodipodi:end="4.712389"
         sodipodi:start="2.6179939"
         sodipodi:ry="6.1725717"
         sodipodi:rx="6.1725717"
         sodipodi:cy="-255.08705"
         sodipodi:cx="-108.12342"
         sodipodi:type="arc"
         id="path969"
         style="fill:none;stroke:#24221c;stroke-width:4.07369;stroke-linecap:round;stroke-miterlimit:4;stroke-dasharray:none;stroke-opacity:1"
         transform="scale(-1)" />
      <path
         style="fill:none;stroke:#24221c;stroke-width:4.07369;stroke-linecap:butt;stroke-linejoin:miter;stroke-miterlimit:4;stroke-dasharray:none;stroke-opacity:1"
         d="m 7.705092,256.35582 c 0,0 27.331058,-7.50239 52.516771,-7.50239 25.185714,0 52.516777,7.50239 52.516777,7.50239"
         id="path971"
         sodipodi:nodetypes="czc" />
      <path
         style="fill:none;stroke:#24221c;stroke-width:4.07369;stroke-linecap:butt;stroke-linejoin:miter;stroke-miterlimit:4;stroke-dasharray:none;stroke-opacity:1"
         d="m 7.705092,256.35582 c 0,0 18.092716,-10.42846 27.72939,-20.06514 9.636674,-9.63667 37.072299,-8.83455 48.001645,0.51339 10.92934,9.34793 29.302513,19.55175 29.302513,19.55175"
         id="path973"
         sodipodi:nodetypes="czzc" />
      <path
         transform="scale(1,-1)"
         d="m 74.454229,-143.82413 a 16.898142,25.851635 0 0 1 16.322352,-19.16074 16.898142,25.851635 0 0 1 16.322349,19.16073"
         sodipodi:arc-type="arc"
         sodipodi:end="6.0213859"
         sodipodi:start="3.403392"
         sodipodi:ry="25.851635"
         sodipodi:rx="16.898142"
         sodipodi:cy="-137.13324"
         sodipodi:cx="90.776581"
         sodipodi:type="arc"
         style="fill:none;stroke:#24221c;stroke-width:4.99352;stroke-linecap:round;stroke-miterlimit:4;stroke-dasharray:none;stroke-opacity:1"
         id="path975"
         sodipodi:open="true" />
      <path
         transform="scale(1,-1)"
         sodipodi:open="true"
         id="path977"
         style="fill:none;stroke:#24221c;stroke-width:4.99352;stroke-linecap:round;stroke-miterlimit:4;stroke-dasharray:none;stroke-opacity:1"
         sodipodi:type="arc"
         sodipodi:cx="29.671263"
         sodipodi:cy="-137.13324"
         sodipodi:rx="16.898142"
         sodipodi:ry="25.851635"
         sodipodi:start="3.403392"
         sodipodi:end="6.0213859"
         sodipodi:arc-type="arc"
         d="m 13.348911,-143.82413 a 16.898142,25.851635 0 0 1 16.322352,-19.16074 16.898142,25.851635 0 0 1 16.322351,19.16073" />
      <path
         style="fill:#164450;fill-opacity:1;stroke:#24221c;stroke-width:4.07369;stroke-linecap:butt;stroke-linejoin:miter;stroke-miterlimit:4;stroke-dasharray:none;stroke-opacity:1"
         d="m 60.060338,249.27772 v -20.1932"
         id="path979" />
      <path
         id="path981"
         d="M 72.281407,249.27772 V 230.6576"
         style="fill:#164450;fill-opacity:1;stroke:#24221c;stroke-width:4.07369;stroke-linecap:butt;stroke-linejoin:miter;stroke-miterlimit:4;stroke-dasharray:none;stroke-opacity:1"
         sodipodi:nodetypes="cc" />
      <path
         style="fill:#164450;fill-opacity:1;stroke:#24221c;stroke-width:4.07369;stroke-linecap:butt;stroke-linejoin:miter;stroke-miterlimit:4;stroke-dasharray:none;stroke-opacity:1"
         d="M 84.502487,249.27772 V 237.79489"
         id="path983"
         sodipodi:nodetypes="cc" />
      <path
         id="path985"
         d="m 96.723567,253.35141 v -8.04305"
         style="fill:#164450;fill-opacity:1;stroke:#24221c;stroke-width:4.07369;stroke-linecap:butt;stroke-linejoin:miter;stroke-miterlimit:4;stroke-dasharray:none;stroke-opacity:1"
         sodipodi:nodetypes="cc" />
      <path
         style="fill:#164450;fill-opacity:1;stroke:#24221c;stroke-width:4.07369;stroke-linecap:butt;stroke-linejoin:miter;stroke-miterlimit:4;stroke-dasharray:none;stroke-opacity:1"
         d="m 47.839269,249.27772 v -20.1932"
         id="path987" />
      <path
         id="path989"
         d="M 35.618199,249.27772 V 237.2987"
         style="fill:#164450;fill-opacity:1;stroke:#24221c;stroke-width:4.07369;stroke-linecap:butt;stroke-linejoin:miter;stroke-miterlimit:4;stroke-dasharray:none;stroke-opacity:1"
         sodipodi:nodetypes="cc" />
      <path
         style="fill:#164450;fill-opacity:1;stroke:#24221c;stroke-width:4.07369;stroke-linecap:butt;stroke-linejoin:miter;stroke-miterlimit:4;stroke-dasharray:none;stroke-opacity:1"
         d="m 23.397129,253.35141 v -7.35854"
         id="path991"
         sodipodi:nodetypes="cc" />
      <path
         style="fill:#24221c;fill-opacity:1;stroke:#000000;stroke-width:0.203684px;stroke-linecap:butt;stroke-linejoin:miter;stroke-opacity:0"
         d="m 15.669097,253.81263 7.728032,-0.46122 v -7.35854 z"
         id="path993" />
      <path
         id="path995"
         d="m 104.71348,253.81263 -7.728043,-0.46122 v -7.35854 z"
         style="fill:#24221c;fill-opacity:1;stroke:#000000;stroke-width:0.203684px;stroke-linecap:butt;stroke-linejoin:miter;stroke-opacity:0" />
    </g>
    <g
       id="g1118">
      <path
         sodipodi:nodetypes="czc"
         id="path1029"
         d="m 171.74679,256.35582 c 0,0 4.65174,-19.28397 26.05847,-19.28397 21.40673,0 26.05847,19.28397 26.05847,19.28397"
         style="fill:none;stroke:#24221c;stroke-width:26.4583;stroke-linecap:round;stroke-linejoin:miter;stroke-miterlimit:4;stroke-dasharray:none;stroke-opacity:1" />
      <path
         id="path1055"
         d="m 154.49436,178.05753 21.41382,37.08983"
         style="fill:none;stroke:#24221c;stroke-width:5.2916667;stroke-linecap:round;stroke-linejoin:miter;stroke-opacity:1;stroke-miterlimit:4;stroke-dasharray:none" />
      <path
         style="fill:none;stroke:#24221c;stroke-width:5.29167;stroke-linecap:round;stroke-linejoin:miter;stroke-miterlimit:4;stroke-dasharray:none;stroke-opacity:1"
         d="m 175.90818,178.05753 -21.41382,37.08983"
         id="path1057" />
      <path
         style="fill:none;stroke:#24221c;stroke-width:5.29167;stroke-linecap:round;stroke-linejoin:miter;stroke-miterlimit:4;stroke-dasharray:none;stroke-opacity:1"
         d="m 217.9944,178.05753 21.41382,37.08983"
         id="path1059" />
      <path
         id="path1061"
         d="M 239.40822,178.05753 217.9944,215.14736"
         style="fill:none;stroke:#24221c;stroke-width:5.29167;stroke-linecap:round;stroke-linejoin:miter;stroke-miterlimit:4;stroke-dasharray:none;stroke-opacity:1" />
    </g>
    <circle
       style="fill:#afe9dd;fill-opacity:1;stroke:none;stroke-width:26.4583;stroke-linecap:round;stroke-linejoin:round;stroke-miterlimit:4;stroke-dasharray:none;stroke-opacity:1"
       id="path1125"
       cx="305.87576"
       cy="19.176647"
       r="10.845808" />
    <circle
       r="7.0733528"
       cy="19.176647"
       cx="333.54034"
       id="circle1127"
       style="fill:#afe9dd;fill-opacity:1;stroke:none;stroke-width:17.2554;stroke-linecap:round;stroke-linejoin:round;stroke-miterlimit:4;stroke-dasharray:none;stroke-opacity:1" />
  </g>
</svg>
