# Blender v2.83.2 OBJ File: 'block_floor_edge.blend'
# www.blender.org
mtllib block_floor_edge.mtl
o Floor_Block_Cube
v 1.000000 2.000000 -1.000000
v 1.000000 2.000000 1.000000
v -1.000000 0.000000 -1.000000
v -1.000000 0.000000 1.000000
v -1.000000 1.800000 -1.000000
v -0.800000 2.000000 -1.000000
v -0.973205 1.900000 -1.000000
v -0.900000 1.973205 -1.000000
v -0.800000 2.000000 1.000000
v -1.000000 1.800000 1.000000
v -0.900000 1.973205 1.000000
v -0.973205 1.900000 1.000000
vt 0.000000 0.507812
vt 0.450000 0.507812
vt 0.450000 1.000000
vt 0.000000 1.000000
vt 0.000000 0.000000
vt 0.000000 0.450000
vt 0.500000 0.450000
vt 0.500000 0.000000
vt 0.475000 0.507812
vt 0.475000 1.000000
vt 0.500000 0.507812
vt 0.500000 1.000000
vt 0.000000 0.475000
vt 0.500000 0.475000
vn 0.0000 1.0000 0.0000
vn -1.0000 0.0000 0.0000
vn -0.2588 0.9659 0.0000
vn -0.7071 0.7071 0.0000
vn -0.9659 0.2588 0.0000
usemtl Material
s off
f 1/1/1 6/2/1 9/3/1 2/4/1
f 4/5/2 10/6/2 5/7/2 3/8/2
f 9/3/3 6/2/3 8/9/3 11/10/3
f 11/10/4 8/9/4 7/11/4 12/12/4
f 12/13/5 7/14/5 5/7/5 10/6/5
