# Blender v2.83.2 OBJ File: 'block_floor_round.blend'
# www.blender.org
mtllib block_floor_round.mtl
o Floor_Block_Cube
v 1.000000 2.000000 -1.000000
v 1.000000 0.000000 1.000000
v -1.000000 0.000000 -1.000000
v 0.557094 0.000000 1.000000
v -1.000000 0.000000 -0.557094
v -0.038780 0.000000 0.881473
v -0.543938 0.000000 0.543938
v -0.881473 0.000000 0.038780
v 1.000000 2.000000 0.800000
v 1.000000 1.800000 1.000000
v 1.000000 1.941421 0.941421
v -1.000000 1.800000 -1.000000
v -0.800000 2.000000 -1.000000
v -0.941421 1.941421 -1.000000
v -0.800000 2.000000 -0.576793
v -1.000000 1.800000 -0.557094
v -0.941421 1.941421 -0.562864
v 0.576793 2.000000 0.800000
v 0.557094 1.800000 1.000000
v 0.562864 1.941421 0.941421
v -0.693077 2.000000 -0.039256
v -0.881473 1.800000 0.038780
v -0.826293 1.941421 0.015924
v -0.399746 2.000000 0.399746
v -0.543938 1.800000 0.543938
v -0.501705 1.941421 0.501705
v 0.039256 2.000000 0.693077
v -0.038780 1.800000 0.881473
v -0.015924 1.941421 0.826293
vt 0.000000 0.507812
vt 0.450000 0.507812
vt 0.450000 0.611961
vt 0.423269 0.744246
vt 0.349936 0.852281
vt 0.240186 0.924468
vt 0.105802 0.950781
vt 0.000000 0.950781
vt 0.000000 0.000000
vt 0.000000 0.450000
vt 0.110726 0.450000
vt 0.110726 0.000000
vt 0.389274 0.000000
vt 0.389274 0.450000
vt 0.500000 0.450000
vt 0.500000 0.000000
vt 0.240305 0.000000
vt 0.240305 0.450000
vt 0.000000 0.000000
vt 0.000000 0.450000
vt 0.259695 0.000000
vt 0.259695 0.450000
vt 0.500000 0.450000
vt 0.500000 0.000000
vt 0.256838 0.971391
vt 0.112141 0.999723
vt 0.112141 0.500000
vt 0.256838 0.500000
vt 0.383562 0.889359
vt 0.262117 0.969238
vt 0.264304 0.500000
vt 0.495391 0.500000
vt 0.468750 0.765834
vt 0.387603 0.885382
vt 0.004609 0.500000
vt 0.235696 0.500000
vt 0.499719 0.618201
vt 0.470937 0.760637
vt 0.243162 0.500000
vt 0.387859 0.500000
vt 0.500000 0.507812
vt 0.500000 0.615389
vt 0.390716 0.500000
vt 0.500000 0.500000
vt 0.109284 1.000000
vt 0.000000 1.000000
vt 0.000000 0.500000
vt 0.109284 0.500000
vn 0.0000 1.0000 0.0000
vn 0.0000 0.0000 1.0000
vn 0.0000 0.1951 0.9808
vn -0.0962 0.1936 0.9764
vn -0.0980 0.0000 0.9952
vn -0.9952 0.0000 0.0980
vn -0.9764 0.1936 0.0962
vn -0.9808 0.1951 0.0000
vn -1.0000 0.0000 0.0000
vn -0.9239 0.0000 0.3827
vn -0.9064 0.1938 0.3754
vn -0.7071 0.0000 0.7071
vn -0.6937 0.1938 0.6937
vn -0.3827 0.0000 0.9239
vn -0.3754 0.1938 0.9064
vn -0.0374 0.9245 0.3793
vn -0.1440 0.9265 0.3477
vn -0.2774 0.6889 0.6697
vn -0.0703 0.6966 0.7140
vn -0.2661 0.9265 0.2661
vn -0.5126 0.6889 0.5126
vn -0.3477 0.9265 0.1440
vn -0.6697 0.6889 0.2774
vn -0.3793 0.9245 0.0374
vn -0.7140 0.6966 0.0703
vn -0.3827 0.9239 0.0000
vn -0.7071 0.7071 0.0000
vn 0.0000 0.9239 0.3827
vn 0.0000 0.7071 0.7071
usemtl Material
s off
f 1/1/1 13/2/1 15/3/1 21/4/1 24/5/1 27/6/1 18/7/1 9/8/1
s 1
f 2/9/2 10/10/3 19/11/4 4/12/5
f 5/13/6 16/14/7 12/15/8 3/16/9
f 8/17/10 22/18/11 16/14/7 5/13/6
f 7/19/12 25/20/13 22/18/11 8/17/10
f 6/21/14 28/22/15 25/23/13 7/24/12
f 4/12/5 19/11/4 28/22/15 6/21/14
f 18/7/16 27/6/17 29/25/18 20/26/19
f 20/27/19 29/28/18 28/22/15 19/11/4
f 27/6/17 24/5/20 26/29/21 29/30/18
f 29/31/18 26/32/21 25/23/13 28/22/15
f 24/5/20 21/4/22 23/33/23 26/34/21
f 26/35/21 23/36/23 22/18/11 25/20/13
f 21/4/22 15/3/24 17/37/25 23/38/23
f 23/39/23 17/40/25 16/14/7 22/18/11
f 15/3/24 13/2/26 14/41/27 17/42/25
f 17/43/25 14/44/27 12/15/8 16/14/7
f 9/8/28 18/7/16 20/45/19 11/46/29
f 11/47/29 20/48/19 19/11/4 10/10/3
