# Blender v2.83.2 OBJ File: 'switch.blend'
# www.blender.org
mtllib switch.mtl
o Cube
v -0.865770 0.000000 0.915770
v -0.915770 0.000000 0.865770
v -0.901125 0.000000 0.901125
v -0.915770 0.000000 -0.865770
v -0.865770 0.000000 -0.915770
v -0.901125 0.000000 -0.901125
v 0.915770 0.000000 0.865770
v 0.865770 0.000000 0.915770
v 0.901125 0.000000 0.901125
v 0.865770 0.000000 -0.915770
v 0.915770 0.000000 -0.865770
v 0.901125 0.000000 -0.901125
v -0.632928 0.211629 0.582928
v -0.682928 0.261629 0.612217
v -0.612217 0.261629 0.682928
v -0.582928 0.211629 0.632928
v -0.647573 0.246984 0.597573
v -0.631209 0.247079 0.631209
v -0.662217 0.261629 0.662217
v -0.597573 0.246984 0.647573
v -0.618283 0.211629 0.618283
v -0.582928 0.211629 -0.632928
v -0.612217 0.261629 -0.682928
v -0.682928 0.261629 -0.612217
v -0.632928 0.211629 -0.582928
v -0.597573 0.246984 -0.647573
v -0.631209 0.247079 -0.631209
v -0.662217 0.261629 -0.662217
v -0.647573 0.246984 -0.597573
v -0.618283 0.211629 -0.618283
v 0.632928 0.211629 0.582928
v 0.582928 0.211629 0.632928
v 0.612217 0.261629 0.682928
v 0.682928 0.261629 0.612217
v 0.618283 0.211629 0.618283
v 0.631209 0.247079 0.631209
v 0.597573 0.246984 0.647573
v 0.662217 0.261629 0.662217
v 0.647573 0.246984 0.597573
v 0.582928 0.211629 -0.632928
v 0.632928 0.211629 -0.582928
v 0.682928 0.261629 -0.612217
v 0.612217 0.261629 -0.682928
v 0.618283 0.211629 -0.618283
v 0.631209 0.247079 -0.631209
v 0.647573 0.246984 -0.597573
v 0.662217 0.261629 -0.662217
v 0.597573 0.246984 -0.647573
v -0.795059 0.261629 -0.865770
v -0.865770 0.211629 -0.915770
v -0.915770 0.211629 -0.865770
v -0.865770 0.261629 -0.795059
v -0.830415 0.246984 -0.901125
v -0.882362 0.247079 -0.882362
v -0.901125 0.211629 -0.901125
v -0.901125 0.246984 -0.830415
v -0.845059 0.261629 -0.845059
v 0.795059 0.261629 -0.865770
v 0.865770 0.261629 -0.795059
v 0.915770 0.211629 -0.865770
v 0.865770 0.211629 -0.915770
v 0.845059 0.261629 -0.845059
v 0.882362 0.247079 -0.882362
v 0.901125 0.246984 -0.830415
v 0.901125 0.211629 -0.901125
v 0.830415 0.246984 -0.901125
v 0.865770 0.261629 0.795059
v 0.795059 0.261629 0.865770
v 0.865770 0.211629 0.915770
v 0.915770 0.211629 0.865770
v 0.845059 0.261629 0.845059
v 0.882362 0.247079 0.882362
v 0.830415 0.246984 0.901125
v 0.901125 0.211629 0.901125
v 0.901125 0.246984 0.830415
v -0.865770 0.261629 0.795059
v -0.915770 0.211629 0.865770
v -0.865770 0.211629 0.915770
v -0.795059 0.261629 0.865770
v -0.901125 0.246984 0.830415
v -0.882362 0.247079 0.882362
v -0.901125 0.211629 0.901125
v -0.830415 0.246984 0.901125
v -0.845059 0.261629 0.845059
v -0.582928 0.082865 -0.632928
v -0.632928 0.082865 -0.582928
v -0.618283 0.082865 -0.618283
v 0.632928 0.082865 -0.582928
v 0.582928 0.082865 -0.632928
v 0.618283 0.082865 -0.618283
v 0.582928 0.082865 0.632928
v 0.632928 0.082865 0.582928
v 0.618283 0.082865 0.618283
v -0.632928 0.082865 0.582928
v -0.582928 0.082865 0.632928
v -0.618283 0.082865 0.618283
v -0.598534 0.130109 -0.651146
v -0.617517 0.082865 -0.617517
v -0.651146 0.130109 -0.598534
v -0.611416 0.096703 -0.648618
v -0.638913 0.102833 -0.638913
v -0.648618 0.096703 -0.611416
v -0.635195 0.130109 -0.635195
v 0.598534 0.130109 -0.651146
v 0.651146 0.130109 -0.598534
v 0.617517 0.082865 -0.617517
v 0.635195 0.130109 -0.635195
v 0.638913 0.102833 -0.638913
v 0.648618 0.096703 -0.611416
v 0.611416 0.096703 -0.648618
v 0.651146 0.130109 0.598534
v 0.598534 0.130109 0.651146
v 0.617517 0.082865 0.617517
v 0.635195 0.130109 0.635195
v 0.638913 0.102833 0.638913
v 0.611416 0.096703 0.648618
v 0.648618 0.096703 0.611416
v -0.651146 0.130109 0.598534
v -0.617517 0.082865 0.617517
v -0.598534 0.130109 0.651146
v -0.648618 0.096703 0.611416
v -0.638913 0.102833 0.638913
v -0.611416 0.096703 0.648618
v -0.635195 0.130109 0.635195
v -0.302123 0.309839 -0.372590
v -0.372590 0.309839 -0.302123
v -0.272935 0.315705 -0.272935
v -0.337458 0.311551 -0.337458
v -0.317590 0.313582 -0.317590
v -0.322834 0.313987 -0.287529
v -0.287529 0.313987 -0.322834
v 0.302123 0.309839 -0.372590
v 0.272935 0.315705 -0.272935
v 0.372590 0.309839 -0.302123
v 0.287529 0.313987 -0.322834
v 0.317590 0.313582 -0.317590
v 0.322834 0.313987 -0.287529
v 0.337458 0.311551 -0.337458
v 0.372590 0.309839 0.302123
v 0.272935 0.315705 0.272935
v 0.302123 0.309839 0.372590
v 0.322834 0.313987 0.287529
v 0.317590 0.313582 0.317590
v 0.287529 0.313987 0.322834
v 0.337458 0.311551 0.337458
v -0.372590 0.309839 0.302123
v -0.302123 0.309839 0.372590
v -0.272935 0.315705 0.272935
v -0.337458 0.311551 0.337458
v -0.317590 0.313582 0.317590
v -0.287529 0.313987 0.322834
v -0.322834 0.313987 0.287529
v -0.477976 0.289064 -0.548443
v -0.561857 0.235953 -0.614469
v -0.614469 0.235953 -0.561857
v -0.548443 0.289064 -0.477976
v -0.519917 0.271078 -0.588349
v -0.567567 0.272131 -0.567567
v -0.596949 0.242043 -0.596949
v -0.588349 0.271078 -0.519917
v -0.513311 0.290776 -0.513311
v 0.477976 0.289064 -0.548443
v 0.548443 0.289064 -0.477976
v 0.614469 0.235953 -0.561857
v 0.561857 0.235953 -0.614469
v 0.513311 0.290776 -0.513311
v 0.567567 0.272131 -0.567567
v 0.588349 0.271078 -0.519917
v 0.596949 0.242043 -0.596949
v 0.519917 0.271078 -0.588349
v 0.548443 0.289064 0.477976
v 0.477976 0.289064 0.548443
v 0.561857 0.235953 0.614469
v 0.614469 0.235953 0.561857
v 0.513311 0.290776 0.513311
v 0.567567 0.272131 0.567567
v 0.519917 0.271078 0.588349
v 0.596949 0.242043 0.596949
v 0.588349 0.271078 0.519917
v -0.548443 0.289064 0.477976
v -0.614469 0.235953 0.561857
v -0.561857 0.235953 0.614469
v -0.477976 0.289064 0.548443
v -0.588349 0.271078 0.519917
v -0.567567 0.272131 0.567567
v -0.596949 0.242043 0.596949
v -0.519917 0.271078 0.588349
v -0.513311 0.290776 0.513311
vt 0.656375 0.523344
vt 0.843625 0.523344
vt 0.843625 0.523344
vt 0.656375 0.523344
vt 0.868175 0.750000
vt 0.631825 0.750000
vt 0.631825 0.750000
vt 0.868175 0.750000
vt 0.625000 0.743175
vt 0.625000 0.506825
vt 0.625000 0.506825
vt 0.625000 0.743175
vt 0.855783 0.720535
vt 0.855783 0.529465
vt 0.870873 0.513918
vt 0.870873 0.736082
vt 0.631825 0.500000
vt 0.868175 0.500000
vt 0.868175 0.500000
vt 0.631825 0.500000
vt 0.648344 0.718625
vt 0.648344 0.531375
vt 0.648344 0.531375
vt 0.648344 0.718625
vt 0.656573 0.523344
vt 0.843427 0.523344
vt 0.843154 0.523344
vt 0.656846 0.523344
vt 0.843625 0.726656
vt 0.656375 0.726656
vt 0.656375 0.726656
vt 0.843625 0.726656
vt 0.851656 0.531375
vt 0.851656 0.718625
vt 0.851656 0.718625
vt 0.851656 0.531375
vt 0.815109 0.677963
vt 0.815109 0.572037
vt 0.843609 0.543403
vt 0.843609 0.706597
vt 0.845535 0.519217
vt 0.654465 0.519217
vt 0.638918 0.504127
vt 0.861082 0.504127
vt 0.654465 0.730783
vt 0.845535 0.730783
vt 0.861082 0.745873
vt 0.638918 0.745873
vt 0.644217 0.529465
vt 0.644217 0.720535
vt 0.629127 0.736082
vt 0.629127 0.513918
vt 0.851656 0.531573
vt 0.851656 0.718427
vt 0.851656 0.718154
vt 0.851656 0.531846
vt 0.843427 0.726656
vt 0.656573 0.726656
vt 0.656846 0.726656
vt 0.843154 0.726656
vt 0.648344 0.718427
vt 0.648344 0.531572
vt 0.648344 0.531846
vt 0.648344 0.718154
vt 0.655958 0.530958
vt 0.655959 0.719041
vt 0.844041 0.719041
vt 0.844041 0.530958
vt 0.802963 0.559891
vt 0.697037 0.559891
vt 0.668403 0.531391
vt 0.831597 0.531391
vt 0.701773 0.576773
vt 0.798227 0.576773
vt 0.798227 0.673227
vt 0.701773 0.673227
vt 0.697037 0.690109
vt 0.802963 0.690109
vt 0.831597 0.718609
vt 0.668403 0.718609
vt 0.684891 0.572037
vt 0.684891 0.677963
vt 0.656391 0.706597
vt 0.656391 0.543403
vt 0.851656 0.720977
vt 0.851587 0.726587
vt 0.851656 0.726656
vt 0.854073 0.729073
vt 0.845977 0.726656
vt 0.845977 0.523344
vt 0.851587 0.523413
vt 0.851656 0.523344
vt 0.854073 0.520927
vt 0.851656 0.529023
vt 0.648344 0.726656
vt 0.648413 0.726587
vt 0.648344 0.720977
vt 0.654023 0.726656
vt 0.645927 0.729073
vt 0.648344 0.523344
vt 0.648413 0.523413
vt 0.654023 0.523344
vt 0.648344 0.529023
vt 0.645927 0.520927
vt 0.863349 0.500000
vt 0.873171 0.501829
vt 0.869164 0.505836
vt 0.875000 0.500000
vt 0.875000 0.506825
vt 0.875000 0.511651
vt 0.630836 0.505836
vt 0.626829 0.501829
vt 0.636651 0.500000
vt 0.625000 0.511651
vt 0.625000 0.500000
vt 0.630836 0.744164
vt 0.626829 0.748171
vt 0.625000 0.738349
vt 0.636651 0.750000
vt 0.625000 0.750000
vt 0.875000 0.738349
vt 0.873171 0.748171
vt 0.869164 0.744164
vt 0.875000 0.743175
vt 0.875000 0.750000
vt 0.863349 0.750000
vt 0.843112 0.523344
vt 0.850204 0.524796
vt 0.851656 0.523344
vt 0.851656 0.531888
vt 0.648344 0.523344
vt 0.649796 0.524796
vt 0.656888 0.523344
vt 0.648344 0.531888
vt 0.648344 0.726656
vt 0.649796 0.725204
vt 0.648344 0.718112
vt 0.656888 0.726656
vt 0.851656 0.718112
vt 0.850204 0.725204
vt 0.851656 0.726656
vt 0.843112 0.726656
vt 0.809439 0.565561
vt 0.806747 0.568253
vt 0.800806 0.567938
vt 0.807062 0.574194
vt 0.699194 0.567938
vt 0.693253 0.568253
vt 0.690561 0.565561
vt 0.692938 0.574194
vt 0.692938 0.675806
vt 0.693253 0.681747
vt 0.690561 0.684439
vt 0.699194 0.682062
vt 0.809439 0.684439
vt 0.806747 0.681747
vt 0.807062 0.675806
vt 0.800806 0.682062
vt 0.838368 0.523344
vt 0.849157 0.525843
vt 0.837938 0.537062
vt 0.851656 0.523344
vt 0.851656 0.536632
vt 0.662062 0.537062
vt 0.650843 0.525844
vt 0.661632 0.523344
vt 0.648344 0.536632
vt 0.648344 0.523344
vt 0.662062 0.712938
vt 0.650844 0.724157
vt 0.648344 0.713368
vt 0.661632 0.726656
vt 0.648344 0.726656
vt 0.851656 0.713368
vt 0.849156 0.724157
vt 0.837938 0.712938
vt 0.851656 0.726656
vt 0.838368 0.726656
vt 0.875000 0.506825
vt 0.875000 0.500000
vt 0.625000 0.500000
vt 0.875000 0.750000
vt 0.875000 0.743175
vt 0.625000 0.750000
vt 0.851656 0.726656
vt 0.851656 0.523344
vt 0.648344 0.523344
vt 0.648344 0.726656
vn -0.1785 0.2217 0.9586
vn 0.1785 0.2217 0.9586
vn 0.1951 0.0000 0.9808
vn -0.1951 0.0000 0.9808
vn 0.2118 0.2691 0.9395
vn -0.2118 0.2691 0.9395
vn 0.9808 0.0000 0.1951
vn 0.9808 0.0000 -0.1951
vn 0.9395 0.2691 -0.2118
vn 0.9395 0.2691 0.2118
vn 0.1544 0.9873 -0.0357
vn 0.1544 0.9873 0.0357
vn -0.1979 0.9800 -0.0207
vn -0.1979 0.9800 0.0207
vn 0.1951 0.0000 -0.9808
vn -0.1951 0.0000 -0.9808
vn -0.2118 0.2691 -0.9395
vn 0.2118 0.2691 -0.9395
vn -0.9586 0.2217 -0.1785
vn -0.9586 0.2217 0.1785
vn -0.9808 0.0000 0.1951
vn -0.9808 0.0000 -0.1951
vn 0.1783 0.1897 -0.9655
vn -0.1783 0.1897 -0.9655
vn -0.1642 0.5375 -0.8271
vn 0.1642 0.5375 -0.8271
vn 0.1785 0.2217 -0.9586
vn -0.1785 0.2217 -0.9586
vn 0.9586 0.2217 0.1785
vn 0.9586 0.2217 -0.1785
vn -0.0946 0.9954 0.0132
vn -0.0946 0.9954 -0.0132
vn -0.2521 0.9668 -0.0415
vn -0.2521 0.9668 0.0415
vn 0.0357 0.9873 0.1544
vn -0.0357 0.9873 0.1544
vn 0.0207 0.9800 -0.1979
vn -0.0207 0.9800 -0.1979
vn -0.0357 0.9873 -0.1544
vn 0.0357 0.9873 -0.1544
vn -0.0207 0.9800 0.1979
vn 0.0207 0.9800 0.1979
vn -0.1544 0.9873 0.0357
vn -0.1544 0.9873 -0.0357
vn 0.1979 0.9800 0.0207
vn 0.1979 0.9800 -0.0207
vn -0.9655 0.1897 -0.1783
vn -0.9655 0.1897 0.1783
vn -0.8271 0.5375 0.1642
vn -0.8271 0.5375 -0.1642
vn -0.1783 0.1897 0.9655
vn 0.1783 0.1897 0.9655
vn 0.1642 0.5375 0.8271
vn -0.1642 0.5375 0.8271
vn 0.9655 0.1897 0.1783
vn 0.9655 0.1897 -0.1783
vn 0.8271 0.5375 -0.1642
vn 0.8271 0.5375 0.1642
vn 0.2126 -0.9537 -0.2126
vn 0.2126 -0.9537 0.2126
vn -0.2126 -0.9537 0.2126
vn -0.2126 -0.9537 -0.2126
vn -0.0132 0.9954 -0.0946
vn 0.0132 0.9954 -0.0946
vn 0.0415 0.9668 -0.2521
vn -0.0415 0.9668 -0.2521
vn 0.0139 0.9998 -0.0139
vn -0.0139 0.9998 -0.0139
vn -0.0139 0.9998 0.0139
vn 0.0139 0.9998 0.0139
vn 0.0132 0.9954 0.0946
vn -0.0132 0.9954 0.0946
vn -0.0415 0.9668 0.2521
vn 0.0415 0.9668 0.2521
vn 0.0946 0.9954 -0.0132
vn 0.0946 0.9954 0.0132
vn 0.2521 0.9668 0.0415
vn 0.2521 0.9668 -0.0415
vn 0.6303 0.7628 -0.1441
vn 0.4203 0.8041 -0.4203
vn 0.6817 0.2655 -0.6817
vn 0.0880 0.9922 -0.0880
vn 0.1441 0.7628 -0.6303
vn 0.1441 0.7628 0.6303
vn 0.4203 0.8041 0.4203
vn 0.6817 0.2655 0.6817
vn 0.0880 0.9922 0.0880
vn 0.6303 0.7628 0.1441
vn -0.6817 0.2655 -0.6817
vn -0.4203 0.8041 -0.4203
vn -0.6303 0.7628 -0.1441
vn -0.1441 0.7628 -0.6303
vn -0.0880 0.9922 -0.0880
vn -0.6817 0.2655 0.6817
vn -0.4203 0.8041 0.4203
vn -0.1441 0.7628 0.6303
vn -0.6303 0.7628 0.1441
vn -0.0880 0.9922 0.0880
vn -0.0894 0.7358 -0.6713
vn -0.4326 0.7910 -0.4326
vn -0.1212 0.9852 -0.1212
vn -0.6738 0.3030 -0.6738
vn -0.9395 0.2691 -0.2118
vn -0.6713 0.7358 -0.0894
vn 0.1212 0.9852 -0.1212
vn 0.4326 0.7910 -0.4326
vn 0.0894 0.7358 -0.6713
vn 0.6713 0.7358 -0.0894
vn 0.6738 0.3030 -0.6738
vn 0.1212 0.9852 0.1212
vn 0.4326 0.7910 0.4326
vn 0.6713 0.7358 0.0894
vn 0.0894 0.7358 0.6713
vn 0.6738 0.3030 0.6738
vn -0.6713 0.7358 0.0894
vn -0.4326 0.7910 0.4326
vn -0.1212 0.9852 0.1212
vn -0.9395 0.2691 0.2118
vn -0.6738 0.3030 0.6738
vn -0.0894 0.7358 0.6713
vn -0.2256 -0.5149 -0.8270
vn -0.6713 -0.3139 -0.6713
vn -0.6796 0.2762 -0.6796
vn -0.8270 -0.5149 -0.2256
vn 0.6796 0.2762 -0.6796
vn 0.6713 -0.3139 -0.6713
vn 0.2256 -0.5149 -0.8270
vn 0.8270 -0.5149 -0.2256
vn 0.6796 0.2762 0.6796
vn 0.6713 -0.3139 0.6713
vn 0.8270 -0.5149 0.2256
vn 0.2256 -0.5149 0.8270
vn -0.8270 -0.5149 0.2256
vn -0.6713 -0.3139 0.6713
vn -0.6796 0.2762 0.6796
vn -0.2256 -0.5149 0.8270
vn -0.0549 0.9970 -0.0549
vn -0.0427 0.9982 -0.0427
vn -0.0125 0.9984 -0.0554
vn -0.0554 0.9984 -0.0125
vn 0.0125 0.9984 -0.0554
vn 0.0427 0.9982 -0.0427
vn 0.0549 0.9970 -0.0549
vn 0.0554 0.9984 -0.0125
vn 0.0554 0.9984 0.0125
vn 0.0427 0.9982 0.0427
vn 0.0549 0.9970 0.0549
vn 0.0125 0.9984 0.0554
vn -0.0549 0.9970 0.0549
vn -0.0427 0.9982 0.0427
vn -0.0554 0.9984 0.0125
vn -0.0125 0.9984 0.0554
vn -0.0837 0.8192 -0.5673
vn -0.3392 0.8774 -0.3392
vn -0.1229 0.9848 -0.1229
vn -0.5531 0.6229 -0.5531
vn -0.5673 0.8192 -0.0837
vn 0.1229 0.9848 -0.1229
vn 0.3392 0.8774 -0.3392
vn 0.0837 0.8192 -0.5673
vn 0.5673 0.8192 -0.0837
vn 0.5531 0.6229 -0.5531
vn 0.1229 0.9848 0.1229
vn 0.3392 0.8774 0.3392
vn 0.5673 0.8192 0.0837
vn 0.0837 0.8192 0.5673
vn 0.5531 0.6229 0.5531
vn -0.5673 0.8192 0.0837
vn -0.3392 0.8774 0.3392
vn -0.1229 0.9848 0.1229
vn -0.5531 0.6229 0.5531
vn -0.0837 0.8192 0.5673
vn -0.7071 0.0000 -0.7071
vn 0.7071 0.0000 -0.7071
vn -0.7071 0.0000 0.7071
vn 0.7071 0.0000 0.7071
usemtl Material
s 1
f 40/1/1 22/2/2 85/3/3 89/4/4
f 1/5/4 8/6/3 69/7/5 78/8/6
f 7/9/7 11/10/8 60/11/9 70/12/10
f 14/13/11 24/14/12 52/15/13 76/16/14
f 10/17/15 5/18/16 50/19/17 61/20/18
f 31/21/19 41/22/20 88/23/21 92/24/22
f 104/25/23 97/26/24 154/27/25 165/28/26
f 16/29/27 32/30/28 91/31/16 95/32/15
f 25/33/29 13/34/30 94/35/8 86/36/7
f 146/37/31 126/38/32 156/39/33 180/40/34
f 23/41/35 43/42/36 58/43/37 49/44/38
f 33/45/39 15/46/40 79/47/41 68/48/42
f 42/49/43 34/50/44 67/51/45 59/52/46
f 99/53/47 118/54/48 181/55/49 155/56/50
f 120/57/51 112/58/52 173/59/53 182/60/54
f 111/61/55 105/62/56 164/63/57 174/64/58
f 106/65/59 113/66/60 119/67/61 98/68/62
f 125/69/63 132/70/64 162/71/65 153/72/66
f 133/73/67 127/74/68 148/75/69 140/76/70
f 141/77/71 147/78/72 183/79/73 172/80/74
f 134/81/75 139/82/76 171/83/77 163/84/78
f 13/34/30 17/85/79 18/86/80 21/87/81
f 14/13/11 19/88/82 18/86/80 17/85/79
f 15/46/40 20/89/83 18/86/80 19/88/82
f 16/29/27 21/87/81 18/86/80 20/89/83
f 22/2/2 26/90/84 27/91/85 30/92/86
f 23/41/35 28/93/87 27/91/85 26/90/84
f 24/14/12 29/94/88 27/91/85 28/93/87
f 25/33/29 30/92/86 27/91/85 29/94/88
f 31/21/19 35/95/89 36/96/90 39/97/91
f 32/30/28 37/98/92 36/96/90 35/95/89
f 33/45/39 38/99/93 36/96/90 37/98/92
f 34/50/44 39/97/91 36/96/90 38/99/93
f 40/1/1 44/100/94 45/101/95 48/102/96
f 41/22/20 46/103/97 45/101/95 44/100/94
f 42/49/43 47/104/98 45/101/95 46/103/97
f 43/42/36 48/102/96 45/101/95 47/104/98
f 49/44/38 53/105/99 54/106/100 57/107/101
f 50/19/17 55/108/102 54/106/100 53/105/99
f 51/109/103 56/110/104 54/106/100 55/108/102
f 52/15/13 57/107/101 54/106/100 56/110/104
f 58/43/37 62/111/105 63/112/106 66/113/107
f 59/52/46 64/114/108 63/112/106 62/111/105
f 60/11/9 65/115/109 63/112/106 64/114/108
f 61/20/18 66/113/107 63/112/106 65/115/109
f 67/51/45 71/116/110 72/117/111 75/118/112
f 68/48/42 73/119/113 72/117/111 71/116/110
f 69/7/5 74/120/114 72/117/111 73/119/113
f 70/12/10 75/118/112 72/117/111 74/120/114
f 76/16/14 80/121/115 81/122/116 84/123/117
f 77/124/118 82/125/119 81/122/116 80/121/115
f 78/8/6 83/126/120 81/122/116 82/125/119
f 79/47/41 84/123/117 81/122/116 83/126/120
f 97/26/24 100/127/121 101/128/122 103/129/123
f 98/68/62 102/130/124 101/128/122 100/127/121
f 99/53/47 103/129/123 101/128/122 102/130/124
f 104/25/23 107/131/125 108/132/126 110/133/127
f 105/62/56 109/134/128 108/132/126 107/131/125
f 106/65/59 110/133/127 108/132/126 109/134/128
f 111/61/55 114/135/129 115/136/130 117/137/131
f 112/58/52 116/138/132 115/136/130 114/135/129
f 113/66/60 117/137/131 115/136/130 116/138/132
f 118/54/48 121/139/133 122/140/134 124/141/135
f 119/67/61 123/142/136 122/140/134 121/139/133
f 120/57/51 124/141/135 122/140/134 123/142/136
f 125/69/63 128/143/137 129/144/138 131/145/139
f 126/38/32 130/146/140 129/144/138 128/143/137
f 127/74/68 131/145/139 129/144/138 130/146/140
f 132/70/64 135/147/141 136/148/142 138/149/143
f 133/73/67 137/150/144 136/148/142 135/147/141
f 134/81/75 138/149/143 136/148/142 137/150/144
f 139/82/76 142/151/145 143/152/146 145/153/147
f 140/76/70 144/154/148 143/152/146 142/151/145
f 141/77/71 145/153/147 143/152/146 144/154/148
f 146/37/31 149/155/149 150/156/150 152/157/151
f 147/78/72 151/158/152 150/156/150 149/155/149
f 148/75/69 152/157/151 150/156/150 151/158/152
f 153/72/66 157/159/153 158/160/154 161/161/155
f 154/27/25 159/162/156 158/160/154 157/159/153
f 155/56/50 160/163/157 158/160/154 159/162/156
f 156/39/33 161/161/155 158/160/154 160/163/157
f 162/71/65 166/164/158 167/165/159 170/166/160
f 163/84/78 168/167/161 167/165/159 166/164/158
f 164/63/57 169/168/162 167/165/159 168/167/161
f 165/28/26 170/166/160 167/165/159 169/168/162
f 171/83/77 175/169/163 176/170/164 179/171/165
f 172/80/74 177/172/166 176/170/164 175/169/163
f 173/59/53 178/173/167 176/170/164 177/172/166
f 174/64/58 179/171/165 176/170/164 178/173/167
f 180/40/34 184/174/168 185/175/169 188/176/170
f 181/55/49 186/177/171 185/175/169 184/174/168
f 182/60/54 187/178/172 185/175/169 186/177/171
f 183/79/73 188/176/170 185/175/169 187/178/172
f 49/44/38 58/43/37 66/113/107 53/105/99
f 53/105/99 66/113/107 61/20/18 50/19/17
f 59/52/46 67/51/45 75/118/112 64/114/108
f 64/114/108 75/118/112 70/12/10 60/11/9
f 76/16/14 52/15/13 56/110/104 80/121/115
f 80/121/115 56/110/104 51/109/103 77/124/118
f 68/48/42 79/47/41 83/126/120 73/119/113
f 73/119/113 83/126/120 78/8/6 69/7/5
f 4/179/22 51/109/103 55/108/102 6/180/173
f 6/180/173 55/108/102 50/19/17 5/18/16
f 60/11/9 11/10/8 12/181/174 65/115/109
f 65/115/109 12/181/174 10/17/15 61/20/18
f 1/5/4 78/8/6 82/125/119 3/182/175
f 3/182/175 82/125/119 77/124/118 2/183/21
f 69/7/5 8/6/3 9/184/176 74/120/114
f 74/120/114 9/184/176 7/9/7 70/12/10
f 22/2/2 40/1/1 48/102/96 26/90/84
f 26/90/84 48/102/96 43/42/36 23/41/35
f 41/22/20 31/21/19 39/97/91 46/103/97
f 46/103/97 39/97/91 34/50/44 42/49/43
f 13/34/30 25/33/29 29/94/88 17/85/79
f 17/85/79 29/94/88 24/14/12 14/13/11
f 32/30/28 16/29/27 20/89/83 37/98/92
f 37/98/92 20/89/83 15/46/40 33/45/39
f 52/15/13 24/14/12 28/93/87 57/107/101
f 57/107/101 28/93/87 23/41/35 49/44/38
f 42/49/43 59/52/46 62/111/105 47/104/98
f 47/104/98 62/111/105 58/43/37 43/42/36
f 33/45/39 68/48/42 71/116/110 38/99/93
f 38/99/93 71/116/110 67/51/45 34/50/44
f 79/47/41 15/46/40 19/88/82 84/123/117
f 84/123/117 19/88/82 14/13/11 76/16/14
f 16/29/27 95/32/15 96/185/174 21/87/81
f 21/87/81 96/185/174 94/35/8 13/34/30
f 85/3/3 22/2/2 30/92/86 87/186/176
f 87/186/176 30/92/86 25/33/29 86/36/7
f 88/23/21 41/22/20 44/100/94 90/187/175
f 90/187/175 44/100/94 40/1/1 89/4/4
f 31/21/19 92/24/22 93/188/173 35/95/89
f 35/95/89 93/188/173 91/31/16 32/30/28
f 97/26/24 104/25/23 110/133/127 100/127/121
f 100/127/121 110/133/127 106/65/59 98/68/62
f 105/62/56 111/61/55 117/137/131 109/134/128
f 109/134/128 117/137/131 113/66/60 106/65/59
f 118/54/48 99/53/47 102/130/124 121/139/133
f 121/139/133 102/130/124 98/68/62 119/67/61
f 112/58/52 120/57/51 123/142/136 116/138/132
f 116/138/132 123/142/136 119/67/61 113/66/60
f 153/72/66 162/71/65 170/166/160 157/159/153
f 157/159/153 170/166/160 165/28/26 154/27/25
f 163/84/78 171/83/77 179/171/165 168/167/161
f 168/167/161 179/171/165 174/64/58 164/63/57
f 180/40/34 156/39/33 160/163/157 184/174/168
f 184/174/168 160/163/157 155/56/50 181/55/49
f 172/80/74 183/79/73 187/178/172 177/172/166
f 177/172/166 187/178/172 182/60/54 173/59/53
f 104/25/23 165/28/26 169/168/162 107/131/125
f 107/131/125 169/168/162 164/63/57 105/62/56
f 173/59/53 112/58/52 114/135/129 178/173/167
f 178/173/167 114/135/129 111/61/55 174/64/58
f 120/57/51 182/60/54 186/177/171 124/141/135
f 124/141/135 186/177/171 181/55/49 118/54/48
f 154/27/25 97/26/24 103/129/123 159/162/156
f 159/162/156 103/129/123 99/53/47 155/56/50
f 127/74/68 133/73/67 135/147/141 131/145/139
f 131/145/139 135/147/141 132/70/64 125/69/63
f 133/73/67 140/76/70 142/151/145 137/150/144
f 137/150/144 142/151/145 139/82/76 134/81/75
f 148/75/69 127/74/68 130/146/140 152/157/151
f 152/157/151 130/146/140 126/38/32 146/37/31
f 140/76/70 148/75/69 151/158/152 144/154/148
f 144/154/148 151/158/152 147/78/72 141/77/71
f 156/39/33 126/38/32 128/143/137 161/161/155
f 161/161/155 128/143/137 125/69/63 153/72/66
f 134/81/75 163/84/78 166/164/158 138/149/143
f 138/149/143 166/164/158 162/71/65 132/70/64
f 141/77/71 172/80/74 175/169/163 145/153/147
f 145/153/147 175/169/163 171/83/77 139/82/76
f 183/79/73 147/78/72 149/155/149 188/176/170
f 188/176/170 149/155/149 146/37/31 180/40/34
f 4/179/22 2/183/21 77/124/118 51/109/103
